<?xml version="1.0" encoding="UTF-8" standalone="no"?>
<!DOCTYPE svg PUBLIC "-//W3C//DTD SVG 1.1//EN" "http://www.w3.org/Graphics/SVG/1.1/DTD/svg11.dtd">
<svg width="100%" height="100%" viewBox="0 0 14 14" version="1.1" xmlns="http://www.w3.org/2000/svg" xmlns:xlink="http://www.w3.org/1999/xlink" xml:space="preserve" xmlns:serif="http://www.serif.com/" style="fill-rule:evenodd;clip-rule:evenodd;stroke-linejoin:round;stroke-miterlimit:2;">
<!-- <defs><style>.cls-1{fill:#000000;}</style></defs> -->
    <g id="Compose">
        <g transform="matrix(0.696125,0,0,0.696125,2.8012,1.40434)">
            <path d="M15.595,0.591L13.426,-1.578C13.254,-1.751 13.019,-1.848 12.776,-1.848C12.532,-1.848 12.297,-1.751 12.126,-1.578L3.28,7.559L2.619,10.59C2.605,10.653 2.598,10.718 2.598,10.783C2.598,11.286 3.012,11.7 3.515,11.7C3.58,11.7 3.645,11.693 3.709,11.68L6.744,11.019L15.598,1.883C15.95,1.528 15.949,0.945 15.595,0.591Z" style="fill:rgb(200, 200, 200);fill-rule:nonzero;"/>
        </g>
        <path d="M11.99,8.81L11.84,8.81C11.29,8.818 10.992,9.271 10.99,9.821L10.99,11.942L2.034,11.942L2.034,2.992L4.106,2.992C4.66,2.992 5.115,2.65 5.116,2.096L5.116,1.931C5.109,1.381 4.656,0.933 4.106,0.931L1.006,0.931C0.52,0.937 0.105,1.296 0.03,1.776C0.016,1.827 0.006,1.879 -0,1.932L0,12.919C0.003,13.167 0.097,13.406 0.266,13.588C0.278,13.601 0.283,13.619 0.296,13.632C0.309,13.645 0.323,13.648 0.335,13.658C0.518,13.829 0.759,13.926 1.009,13.928L11.99,13.928C12.238,13.925 12.477,13.831 12.659,13.662C12.672,13.65 12.691,13.645 12.703,13.632C12.715,13.619 12.721,13.601 12.733,13.588C12.902,13.406 12.997,13.168 13,12.92L13,9.82C12.999,9.266 12.544,8.811 11.99,8.81Z" style="fill:rgb(200, 200, 200);fill-rule:nonzero;"/>
    </g>
</svg>
