<svg xmlns="http://www.w3.org/2000/svg" width="29.947" height="29.947" viewBox="0 0 29.947 29.947">
  <title>Pencil</title>
  <path d="M28.207,1.74a5.956,5.956,0,0,0-8.414,0l-16.5,16.5a1,1,0,0,0-.251.42l-3,10A1,1,0,0,0,1,29.947a.973.973,0,0,0,.287-.042l10-3a1,1,0,0,0,.42-.251l16.5-16.5A5.956,5.956,0,0,0,28.207,1.74ZM11.5,24.033,5.914,18.447,17.5,6.861l5.586,5.586ZM4.708,20.069,9.879,25.24,2.492,27.456ZM26.793,8.74,24.5,11.033,18.914,5.447l2.293-2.293A3.95,3.95,0,0,1,26.793,8.74Z" fill="#22242b"/>
</svg>
