<?xml version="1.0" encoding="UTF-8" standalone="no"?>
<!DOCTYPE svg PUBLIC "-//W3C//DTD SVG 1.1//EN" "http://www.w3.org/Graphics/SVG/1.1/DTD/svg11.dtd">
<svg width="100%" height="100%" viewBox="0 0 14 14" version="1.1" xmlns="http://www.w3.org/2000/svg" xmlns:xlink="http://www.w3.org/1999/xlink" xml:space="preserve" xmlns:serif="http://www.serif.com/" style="fill-rule:evenodd;clip-rule:evenodd;stroke-linejoin:round;stroke-miterlimit:2;">
    <path id="Search" d="M9.196,1.62C8.186,0.609 6.815,0.041 5.387,0.041C2.433,0.041 0.003,2.471 0.003,5.425C0.003,8.378 2.433,10.809 5.387,10.809C6.283,10.809 7.166,10.585 7.954,10.157L11.585,13.7C11.945,14.042 12.52,14.035 12.872,13.684L13.73,12.826C14.085,12.469 14.085,11.883 13.73,11.526L10.119,7.988C11.252,5.901 10.874,3.299 9.196,1.62ZM7.93,7.963C7.257,8.636 6.343,9.015 5.391,9.015C3.422,9.015 1.801,7.395 1.801,5.425C1.801,3.456 3.422,1.836 5.391,1.836C6.343,1.836 7.257,2.215 7.93,2.888C9.318,4.282 9.318,6.569 7.93,7.963Z" style="fill:rgb(200, 200 200);"/>
</svg>
